<?xml version="1.0" standalone="no"?>
<!DOCTYPE svg PUBLIC "-//W3C//DTD SVG 20010904//EN"
 "http://www.w3.org/TR/2001/REC-SVG-20010904/DTD/svg10.dtd">
<svg version="1.0" xmlns="http://www.w3.org/2000/svg"
 width="1038.000000pt" height="380.000000pt" viewBox="0 0 1038.000000 380.000000"
 preserveAspectRatio="xMidYMid meet">

<g transform="translate(0.000000,380.000000) scale(0.100000,-0.100000)"
fill="#000000" stroke="none">
<path d="M487 3003 c-213 -500 -297 -701 -297 -714 0 -10 161 -10 234 -1 l50
7 49 123 49 122 233 0 233 0 53 -130 53 -130 138 0 c75 0 139 4 142 8 4 8 -87
228 -374 905 l-114 267 -127 0 -126 0 -196 -457z m413 -115 c20 -53 35 -100
32 -103 -3 -3 -64 -5 -135 -5 -119 0 -129 1 -123 18 4 9 34 85 68 169 l62 152
29 -67 c16 -37 46 -111 67 -164z"/>
<path d="M1585 3448 c-3 -7 -4 -272 -3 -588 l3 -575 133 -3 132 -3 0 346 c0
190 3 345 8 345 4 -1 95 -116 202 -257 107 -141 226 -296 263 -345 l68 -88
114 0 115 0 -2 588 -3 587 -130 0 -130 0 -5 -335 -5 -334 -36 44 c-20 25 -132
171 -249 325 -117 154 -219 286 -228 293 -11 8 -54 12 -129 12 -82 0 -115 -4
-118 -12z"/>
<path d="M2892 3452 c-10 -7 -12 -131 -10 -588 l3 -579 270 1 c313 1 373 10
502 75 379 190 407 755 50 989 -95 62 -195 90 -367 100 -181 12 -431 12 -448
2z m570 -272 c74 -27 137 -84 173 -156 27 -54 30 -68 30 -159 0 -87 -3 -106
-25 -149 -32 -63 -116 -139 -177 -161 -31 -11 -95 -19 -180 -22 l-133 -6 0
335 c0 184 3 338 8 343 4 4 61 5 127 2 87 -4 136 -11 177 -27z"/>
<path d="M4167 3453 c-4 -3 -7 -269 -7 -590 l0 -583 135 0 135 0 0 185 0 185
90 0 89 0 123 -182 123 -183 158 -3 c118 -2 157 0 157 10 0 6 -58 99 -130 205
-71 107 -130 197 -130 201 0 4 25 22 55 40 55 33 110 92 138 148 27 52 38 154
27 236 -26 192 -145 300 -360 328 -85 11 -593 14 -603 3z m558 -255 c128 -25
180 -162 94 -247 -42 -42 -83 -52 -246 -58 l-143 -6 0 156 c0 140 2 156 18
160 36 10 221 7 277 -5z"/>
<path d="M5347 3453 c-9 -8 -9 -1135 -1 -1157 5 -14 54 -16 450 -16 l444 0 0
125 0 125 -310 0 -310 0 0 110 0 110 270 0 271 0 -3 123 -3 122 -267 3 -268 2
0 105 0 105 305 0 306 0 -3 123 -3 122 -436 3 c-239 1 -439 -1 -442 -5z"/>
<path d="M7122 3443 c-5 -10 -60 -174 -122 -365 -63 -192 -117 -348 -120 -348
-7 0 -87 249 -184 570 l-44 145 -146 3 c-88 1 -146 -1 -146 -7 0 -15 375
-1124 389 -1149 11 -21 18 -22 120 -22 75 0 111 4 118 13 5 6 63 166 129 355
65 188 121 342 124 342 3 0 59 -156 125 -348 l120 -347 121 -3 c109 -2 122 -1
129 15 9 23 385 1145 385 1150 0 2 -64 3 -143 3 l-143 0 -109 -360 c-60 -198
-113 -360 -116 -360 -4 0 -62 164 -129 365 l-122 365 -113 0 c-99 0 -116 -2
-123 -17z"/>
<path d="M4551 1485 c-325 -74 -520 -374 -457 -705 22 -120 73 -219 155 -301
74 -73 132 -111 230 -147 89 -33 284 -42 381 -18 227 57 399 231 445 451 52
246 -46 501 -242 631 -94 62 -208 96 -338 100 -72 3 -132 -1 -174 -11z m256
-256 c81 -30 172 -122 203 -204 31 -84 25 -205 -14 -287 -32 -67 -98 -130
-175 -166 -46 -21 -63 -24 -130 -20 -124 8 -221 72 -288 192 -26 47 -28 60
-28 156 0 92 3 111 24 150 90 169 247 238 408 179z"/>
<path d="M5940 1484 c-211 -45 -389 -218 -444 -431 -20 -77 -21 -231 -1 -308
50 -198 187 -345 382 -411 101 -35 273 -44 375 -20 220 51 394 223 447 441 16
63 16 208 1 282 -25 122 -108 254 -212 337 -135 107 -357 151 -548 110z m283
-263 c195 -95 265 -339 147 -519 -39 -60 -66 -84 -140 -123 -37 -20 -60 -24
-130 -24 -73 0 -93 4 -142 28 -72 35 -140 110 -169 185 -33 83 -31 198 3 273
42 92 113 159 207 195 53 20 167 13 224 -15z"/>
<path d="M1762 898 l3 -583 325 1 c261 1 338 5 393 18 126 30 199 82 244 174
38 77 39 192 3 266 -26 54 -88 119 -131 136 l-29 12 44 49 c53 59 76 121 76
205 0 131 -65 226 -186 275 -57 23 -68 24 -402 27 l-342 3 2 -583z m590 329
c45 -19 68 -52 68 -97 0 -37 -22 -71 -56 -88 -40 -21 -154 -33 -245 -26 l-89
7 0 108 c0 76 4 109 13 113 25 12 273 -2 309 -17z m23 -448 c88 -22 121 -60
109 -123 -14 -79 -93 -106 -311 -106 l-143 0 0 120 0 120 153 0 c83 0 170 -5
192 -11z"/>
<path d="M2950 895 l0 -585 135 0 135 0 0 185 0 185 90 0 91 0 117 -179 117
-178 50 -7 c75 -9 275 -7 275 3 0 5 -58 97 -130 205 -71 108 -130 201 -130
206 0 5 9 12 20 15 39 12 139 115 164 169 90 190 21 428 -151 516 -88 45 -129
50 -465 50 l-318 0 0 -585z m591 326 c108 -34 141 -167 61 -244 -38 -36 -136
-57 -274 -57 l-108 0 0 161 0 161 143 -5 c78 -2 158 -9 178 -16z"/>
<path d="M6920 895 l0 -585 134 0 133 0 7 38 c3 20 6 102 6 182 l0 146 58 57
58 57 139 -192 c77 -106 157 -214 178 -240 l37 -48 99 0 c54 0 126 3 159 6
l62 7 -34 46 c-18 25 -126 173 -239 329 -114 155 -207 285 -207 288 0 3 101
112 225 242 124 129 225 239 225 244 0 4 -73 8 -163 8 l-163 0 -215 -232 -214
-232 -3 232 -2 232 -140 0 -140 0 0 -585z"/>
<path d="M8122 898 l3 -583 445 0 445 0 3 123 3 122 -316 0 -315 0 0 110 0
110 270 0 270 0 0 120 0 120 -267 2 -268 3 -3 108 -3 107 311 0 310 0 0 120 0
120 -445 0 -445 0 2 -582z"/>
<path d="M9215 1258 c-3 -123 -5 -385 -3 -583 l3 -360 138 -3 137 -3 0 186 0
185 89 0 88 0 119 -179 119 -179 44 -6 c63 -9 281 -7 281 2 0 4 -61 99 -135
211 l-135 204 42 24 c66 37 124 99 155 167 25 55 28 71 28 171 0 100 -3 116
-28 170 -34 73 -86 128 -152 162 -95 49 -127 53 -466 53 l-317 0 -7 -222z
m574 -33 c95 -25 144 -99 122 -183 -24 -87 -113 -122 -313 -122 l-108 0 0 160
0 160 123 0 c74 0 143 -6 176 -15z"/>
</g>
</svg>
